<?xml version="1.0" standalone="no"?>
<!DOCTYPE svg PUBLIC "-//W3C//DTD SVG 20010904//EN"
 "http://www.w3.org/TR/2001/REC-SVG-20010904/DTD/svg10.dtd">
<svg version="1.0" xmlns="http://www.w3.org/2000/svg"
 width="367.000000pt" height="367.000000pt" viewBox="0 0 367.000000 367.000000"
 preserveAspectRatio="xMidYMid meet">
<metadata>
Created by potrace 1.14, written by Peter Selinger 2001-2017
</metadata>
<g transform="translate(0.000000,367.000000) scale(0.100000,-0.100000)"
fill="#000000" stroke="none">
<path d="M1805 3076 c-29 -23 -141 -103 -1010 -731 -220 -158 -410 -297 -422
-308 l-22 -19 22 -31 c12 -17 27 -37 32 -43 6 -6 35 -46 65 -88 34 -47 61 -75
70 -73 13 3 335 232 565 402 39 28 144 105 235 170 167 120 313 226 427 310
34 25 67 45 72 45 9 0 474 -333 852 -609 42 -31 111 -81 153 -111 42 -30 125
-90 183 -132 59 -43 111 -78 117 -78 17 1 190 262 178 269 -5 3 -107 76 -226
161 l-216 155 0 337 0 336 -257 -1 -258 -2 -1 -143 c0 -78 -4 -145 -7 -148 -3
-4 -17 2 -30 12 -14 11 -33 25 -43 32 -11 7 -115 80 -231 162 -117 83 -214
150 -215 150 -2 -1 -16 -11 -33 -24z"/>
<path d="M1801 2570 c-13 -11 -125 -94 -250 -185 -219 -160 -449 -328 -657
-480 l-100 -74 0 -260 c1 -229 3 -262 18 -277 22 -23 78 -11 109 22 52 57 190
133 269 150 205 44 382 8 525 -106 70 -56 108 -80 125 -80 17 0 55 24 125 80
219 175 564 163 775 -27 44 -39 60 -48 91 -48 21 0 41 4 46 9 4 4 8 127 9 272
l0 265 -454 332 c-249 183 -461 338 -470 345 -9 6 -38 28 -64 47 -54 40 -64
42 -97 15z"/>
<path d="M260 1313 c-46 -9 -165 -71 -203 -107 -46 -42 -57 -88 -33 -134 9
-17 26 -37 38 -43 31 -17 96 -4 127 24 60 56 155 80 234 58 24 -7 65 -30 93
-52 89 -72 130 -97 190 -118 158 -53 328 -17 449 94 118 109 257 112 369 9
182 -167 449 -169 627 -4 109 101 249 105 355 9 56 -51 110 -85 164 -104 66
-24 78 -26 160 -27 120 -1 219 40 320 131 103 93 236 93 348 1 43 -35 83 -39
129 -10 35 21 51 69 38 111 -12 37 -74 88 -155 127 -68 33 -84 36 -170 39
-135 3 -228 -31 -328 -121 -60 -54 -114 -78 -179 -78 -72 -1 -111 16 -192 81
-110 90 -186 119 -308 119 -123 0 -212 -36 -317 -127 -62 -54 -108 -73 -176
-73 -69 0 -113 19 -181 77 -106 91 -200 125 -334 122 -110 -4 -188 -35 -280
-112 -33 -28 -77 -59 -97 -68 -83 -39 -188 -20 -270 51 -73 62 -116 88 -185
110 -56 18 -175 26 -233 15z"/>
<path d="M258 954 c-78 -18 -149 -56 -203 -107 -57 -55 -61 -98 -16 -149 40
-45 93 -44 150 1 56 44 107 63 171 63 65 0 117 -20 168 -65 69 -62 109 -87
173 -110 155 -55 336 -18 455 92 72 67 123 87 212 83 56 -2 96 -22 168 -83
113 -95 232 -132 366 -113 93 14 166 49 248 118 72 61 127 82 204 78 61 -4 92
-19 183 -92 83 -67 161 -100 253 -107 126 -10 234 25 331 108 78 67 125 89
190 90 30 1 61 -1 69 -3 36 -10 110 -48 110 -56 0 -17 65 -41 96 -36 43 7 84
56 84 101 0 29 -8 44 -44 79 -101 98 -249 138 -394 108 -82 -17 -156 -55 -218
-111 -118 -109 -247 -109 -369 -2 -188 164 -433 166 -616 3 -124 -110 -247
-111 -373 -3 -195 166 -428 166 -622 -1 -118 -101 -249 -104 -355 -8 -125 112
-275 155 -421 122z"/>
</g>
</svg>
